<svg xmlns="http://www.w3.org/2000/svg" xmlns:xlink="http://www.w3.org/1999/xlink" width="566" height="165.659" viewBox="0 0 566 165.659">
  <defs>
    <filter id="Union_S" x="10" y="37.297" width="87.196" height="112.607" filterUnits="userSpaceOnUse">
      <feOffset dx="5" dy="5" input="SourceAlpha"/>
      <feGaussianBlur stdDeviation="5" result="blur"/>
      <feFlood flood-color="#97a7c3" flood-opacity="0.498"/>
      <feComposite operator="in" in2="blur"/>
      <feComposite in="SourceGraphic"/>
    </filter>
    <filter id="Union_L" x="0" y="27.297" width="87.196" height="112.607" filterUnits="userSpaceOnUse">
      <feOffset dx="-5" dy="-5" input="SourceAlpha"/>
      <feGaussianBlur stdDeviation="5" result="blur-2"/>
      <feFlood flood-color="#fff"/>
      <feComposite operator="in" in2="blur-2"/>
      <feComposite in="SourceGraphic"/>
    </filter>
    <filter id="Union_S-2" x="261.986" y="46.225" width="81.473" height="105.654" filterUnits="userSpaceOnUse">
      <feOffset dx="5" dy="5" input="SourceAlpha"/>
      <feGaussianBlur stdDeviation="5" result="blur-3"/>
      <feFlood flood-color="#97a7c3" flood-opacity="0.498"/>
      <feComposite operator="in" in2="blur-3"/>
      <feComposite in="SourceGraphic"/>
    </filter>
    <filter id="Union_L-2" x="251.986" y="36.225" width="81.473" height="105.654" filterUnits="userSpaceOnUse">
      <feOffset dx="-5" dy="-5" input="SourceAlpha"/>
      <feGaussianBlur stdDeviation="5" result="blur-4"/>
      <feFlood flood-color="#fff"/>
      <feComposite operator="in" in2="blur-4"/>
      <feComposite in="SourceGraphic"/>
    </filter>
    <filter id="Union_S-3" x="66.897" y="10" width="65.746" height="82.122" filterUnits="userSpaceOnUse">
      <feOffset dx="5" dy="5" input="SourceAlpha"/>
      <feGaussianBlur stdDeviation="5" result="blur-5"/>
      <feFlood flood-color="#97a7c3" flood-opacity="0.498"/>
      <feComposite operator="in" in2="blur-5"/>
      <feComposite in="SourceGraphic"/>
    </filter>
    <filter id="Union_L-3" x="56.897" y="0" width="65.746" height="82.122" filterUnits="userSpaceOnUse">
      <feOffset dx="-5" dy="-5" input="SourceAlpha"/>
      <feGaussianBlur stdDeviation="5" result="blur-6"/>
      <feFlood flood-color="#fff"/>
      <feComposite operator="in" in2="blur-6"/>
      <feComposite in="SourceGraphic"/>
    </filter>
    <filter id="Union_S-4" x="232.799" y="25.858" width="59.141" height="72.491" filterUnits="userSpaceOnUse">
      <feOffset dx="5" dy="5" input="SourceAlpha"/>
      <feGaussianBlur stdDeviation="5" result="blur-7"/>
      <feFlood flood-color="#97a7c3" flood-opacity="0.498"/>
      <feComposite operator="in" in2="blur-7"/>
      <feComposite in="SourceGraphic"/>
    </filter>
    <filter id="Union_L-4" x="222.799" y="15.858" width="59.141" height="72.491" filterUnits="userSpaceOnUse">
      <feOffset dx="-5" dy="-5" input="SourceAlpha"/>
      <feGaussianBlur stdDeviation="5" result="blur-8"/>
      <feFlood flood-color="#fff"/>
      <feComposite operator="in" in2="blur-8"/>
      <feComposite in="SourceGraphic"/>
    </filter>
    <filter id="Union_S-5" x="92.083" y="68.91" width="75.778" height="96.748" filterUnits="userSpaceOnUse">
      <feOffset dx="5" dy="5" input="SourceAlpha"/>
      <feGaussianBlur stdDeviation="5" result="blur-9"/>
      <feFlood flood-color="#97a7c3" flood-opacity="0.498"/>
      <feComposite operator="in" in2="blur-9"/>
      <feComposite in="SourceGraphic"/>
    </filter>
    <filter id="Union_L-5" x="82.083" y="58.91" width="75.778" height="96.748" filterUnits="userSpaceOnUse">
      <feOffset dx="-5" dy="-5" input="SourceAlpha"/>
      <feGaussianBlur stdDeviation="5" result="blur-10"/>
      <feFlood flood-color="#fff"/>
      <feComposite operator="in" in2="blur-10"/>
      <feComposite in="SourceGraphic"/>
    </filter>
    <filter id="Union_S-6" x="478.804" y="37.297" width="87.196" height="112.607" filterUnits="userSpaceOnUse">
      <feOffset dx="5" dy="5" input="SourceAlpha"/>
      <feGaussianBlur stdDeviation="5" result="blur-11"/>
      <feFlood flood-color="#97a7c3" flood-opacity="0.498"/>
      <feComposite operator="in" in2="blur-11"/>
      <feComposite in="SourceGraphic"/>
    </filter>
    <filter id="Union_L-6" x="468.804" y="27.297" width="87.196" height="112.607" filterUnits="userSpaceOnUse">
      <feOffset dx="-5" dy="-5" input="SourceAlpha"/>
      <feGaussianBlur stdDeviation="5" result="blur-12"/>
      <feFlood flood-color="#fff"/>
      <feComposite operator="in" in2="blur-12"/>
      <feComposite in="SourceGraphic"/>
    </filter>
    <filter id="Union_S-7" x="443.356" y="10" width="65.746" height="82.122" filterUnits="userSpaceOnUse">
      <feOffset dx="5" dy="5" input="SourceAlpha"/>
      <feGaussianBlur stdDeviation="5" result="blur-13"/>
      <feFlood flood-color="#97a7c3" flood-opacity="0.498"/>
      <feComposite operator="in" in2="blur-13"/>
      <feComposite in="SourceGraphic"/>
    </filter>
    <filter id="Union_L-7" x="433.356" y="0" width="65.746" height="82.122" filterUnits="userSpaceOnUse">
      <feOffset dx="-5" dy="-5" input="SourceAlpha"/>
      <feGaussianBlur stdDeviation="5" result="blur-14"/>
      <feFlood flood-color="#fff"/>
      <feComposite operator="in" in2="blur-14"/>
      <feComposite in="SourceGraphic"/>
    </filter>
    <filter id="Union_S-8" x="408.139" y="68.91" width="75.778" height="96.748" filterUnits="userSpaceOnUse">
      <feOffset dx="5" dy="5" input="SourceAlpha"/>
      <feGaussianBlur stdDeviation="5" result="blur-15"/>
      <feFlood flood-color="#97a7c3" flood-opacity="0.498"/>
      <feComposite operator="in" in2="blur-15"/>
      <feComposite in="SourceGraphic"/>
    </filter>
    <filter id="Union_L-8" x="398.139" y="58.91" width="75.778" height="96.748" filterUnits="userSpaceOnUse">
      <feOffset dx="-5" dy="-5" input="SourceAlpha"/>
      <feGaussianBlur stdDeviation="5" result="blur-16"/>
      <feFlood flood-color="#fff"/>
      <feComposite operator="in" in2="blur-16"/>
      <feComposite in="SourceGraphic"/>
    </filter>
  </defs>
  <g id="Trees" transform="translate(20 20)">
    <g id="Group_29" data-name="Group 29" transform="translate(0 27.297)">
      <g transform="matrix(1, 0, 0, 1, -20, -47.3)" filter="url(#Union_S)">
        <path id="Union_S-9" data-name="Union S" d="M28.917,0c49.169,56.776,24.232,82.607,0,82.607Zm0,0V82.607C4.138,82.607-21.362,56.776,28.917,0Z" transform="translate(20 47.3)" fill="#ecf0f3"/>
      </g>
      <g transform="matrix(1, 0, 0, 1, -20, -47.3)" filter="url(#Union_L)">
        <path id="Union_L-9" data-name="Union L" d="M28.917,0c49.169,56.776,24.232,82.607,0,82.607Zm0,0V82.607C4.138,82.607-21.362,56.776,28.917,0Z" transform="translate(20 47.3)" fill="#ecf0f3"/>
      </g>
      <path id="Path_58" data-name="Path 58" d="M1412.9,2753.343l-.472,20.612-6-6.278,6,7.832v19.941l-12.848-6.087-1.9-10.843,1.412,11.318,13.338,6.927-.34,20.293-21.307-14.855,21.307,16.37-.316,28.829h1.558l-.008-39,17.881-17.8-17.881,16.074.1-26.792,7.228-7.02-7.228,5.659Z" transform="translate(-1383.827 -2748.876)" fill="#193566"/>
      <ellipse id="Ellipse_18" data-name="Ellipse 18" cx="17.5" cy="4" rx="17.5" ry="4" transform="translate(11.069 95.326)" fill="#193566" opacity="0.3"/>
    </g>
    <g id="Group_33" data-name="Group 33" transform="translate(251.986 36.225)">
      <g transform="matrix(1, 0, 0, 1, -271.99, -56.23)" filter="url(#Union_S-2)">
        <path id="Union_S-10" data-name="Union S" d="M26.024,0c44.249,52,21.807,75.654,0,75.654Zm0,0V75.654C3.724,75.654-19.224,52,26.024,0Z" transform="translate(271.99 56.23)" fill="#ecf0f3"/>
      </g>
      <g transform="matrix(1, 0, 0, 1, -271.99, -56.23)" filter="url(#Union_L-2)">
        <path id="Union_L-10" data-name="Union L" d="M26.024,0c44.249,52,21.807,75.654,0,75.654Zm0,0V75.654C3.724,75.654-19.224,52,26.024,0Z" transform="translate(271.99 56.23)" fill="#ecf0f3"/>
      </g>
      <path id="Path_58-2" data-name="Path 58" d="M1410.895,2753.343l-.429,18.876-5.457-5.749,5.457,7.172v18.262l-11.685-5.574-1.73-9.93,1.285,10.365,12.131,6.344-.309,18.584-19.378-13.6,19.378,14.992-.287,26.4h1.417l-.007-35.72,16.262-16.3-16.262,14.721.088-24.537,6.573-6.428-6.573,5.182Z" transform="translate(-1384.456 -2749.353)" fill="#193566"/>
      <ellipse id="Ellipse_18-2" data-name="Ellipse 18" cx="15.5" cy="3.5" rx="15.5" ry="3.5" transform="translate(10.626 87.397)" fill="#193566" opacity="0.3"/>
    </g>
    <g id="Group_30" data-name="Group 30" transform="translate(56.897 0)">
      <g transform="matrix(1, 0, 0, 1, -76.9, -20)" filter="url(#Union_S-3)">
        <path id="Union_S-11" data-name="Union S" d="M18.073,0c30.729,35.823,15.145,52.122,0,52.122Zm0,0V52.122C2.586,52.122-13.351,35.823,18.073,0Z" transform="translate(76.9 20)" fill="#ecf0f3"/>
      </g>
      <g transform="matrix(1, 0, 0, 1, -76.9, -20)" filter="url(#Union_L-3)">
        <path id="Union_L-11" data-name="Union L" d="M18.073,0c30.729,35.823,15.145,52.122,0,52.122Zm0,0V52.122C2.586,52.122-13.351,35.823,18.073,0Z" transform="translate(76.9 20)" fill="#ecf0f3"/>
      </g>
      <path id="Path_58-3" data-name="Path 58" d="M1404.6,2753.343l-.3,12.882-3.75-3.923,3.75,4.895v12.463l-8.03-3.8-1.189-6.776.883,7.073,8.336,4.329-.212,12.683-13.316-9.284,13.316,10.231-.2,18.018h.974l-.005-24.376,11.175-11.125-11.175,10.046.06-16.744,4.517-4.387-4.517,3.537Z" transform="translate(-1386.434 -2750.058)" fill="#193566"/>
      <ellipse id="Ellipse_18-3" data-name="Ellipse 18" cx="10.5" cy="2" rx="10.5" ry="2" transform="translate(7.172 60.413)" fill="#193566" opacity="0.3"/>
    </g>
    <g id="Group_34" data-name="Group 34" transform="translate(222.799 15.858)">
      <g transform="matrix(1, 0, 0, 1, -242.8, -35.86)" filter="url(#Union_S-4)">
        <path id="Union_S-12" data-name="Union S" d="M14.733,0c25.051,29.2,12.346,42.491,0,42.491Zm0,0V42.491C2.108,42.491-10.884,29.2,14.733,0Z" transform="translate(242.8 35.86)" fill="#ecf0f3"/>
      </g>
      <g transform="matrix(1, 0, 0, 1, -242.8, -35.86)" filter="url(#Union_L-4)">
        <path id="Union_L-12" data-name="Union L" d="M14.733,0c25.051,29.2,12.346,42.491,0,42.491Zm0,0V42.491C2.108,42.491-10.884,29.2,14.733,0Z" transform="translate(242.8 35.86)" fill="#ecf0f3"/>
      </g>
      <path id="Path_58-4" data-name="Path 58" d="M1402.048,2753.343l-.24,10.5-3.057-3.2,3.057,3.99v10.16l-6.546-3.1-.969-5.524.72,5.766,6.8,3.529-.173,10.34-10.856-7.569,10.856,8.341-.161,14.688h.794l0-19.872,9.11-9.069-9.11,8.189.049-13.65,3.682-3.577-3.682,2.884Z" transform="translate(-1387.237 -2750.665)" fill="#193566"/>
      <ellipse id="Ellipse_18-4" data-name="Ellipse 18" cx="8.5" cy="1.5" rx="8.5" ry="1.5" transform="translate(5.884 49.555)" fill="#193566" opacity="0.3"/>
    </g>
    <g id="Group_31" data-name="Group 31" transform="translate(82.083 58.91)">
      <g transform="matrix(1, 0, 0, 1, -102.08, -78.91)" filter="url(#Union_S-5)">
        <path id="Union_S-13" data-name="Union S" d="M23.144,66.748C62.5,20.872,42.539,0,23.144,0Zm0,0V0C3.312,0-17.1,20.872,23.144,66.748Z" transform="translate(147.86 145.66) rotate(180)" fill="#ecf0f3"/>
      </g>
      <g transform="matrix(1, 0, 0, 1, -102.08, -78.91)" filter="url(#Union_L-5)">
        <path id="Union_L-13" data-name="Union L" d="M23.144,66.748C62.5,20.872,42.539,0,23.144,0Zm0,0V0C3.312,0-17.1,20.872,23.144,66.748Z" transform="translate(147.86 145.66) rotate(180)" fill="#ecf0f3"/>
      </g>
      <path id="Path_58-5" data-name="Path 58" d="M1405.429,2753.343l.378,16.5,4.8-5.024-4.8,6.268v15.96l10.283-4.872,1.522-8.678-1.13,9.059-10.675,5.544.272,16.242,17.053-11.89-17.053,13.1.253,23.074h-1.247l.006-31.217-14.312-14.247,14.312,12.865-.077-21.443-5.785-5.619,5.785,4.529Z" transform="translate(-1382.918 -2749.136)" fill="#193566"/>
      <ellipse id="Ellipse_18-5" data-name="Ellipse 18" cx="13.738" cy="2.986" rx="13.738" ry="2.986" transform="translate(9.129 77.117)" fill="#193566" opacity="0.3"/>
    </g>
    <g id="Group_35" data-name="Group 35" transform="translate(468.804 27.297)">
      <g transform="matrix(1, 0, 0, 1, -488.8, -47.3)" filter="url(#Union_S-6)">
        <path id="Union_S-14" data-name="Union S" d="M28.917,82.607C78.086,25.831,53.149,0,28.917,0Zm0,0V0C4.138,0-21.362,25.831,28.917,82.607Z" transform="translate(546 129.9) rotate(180)" fill="#ecf0f3"/>
      </g>
      <g transform="matrix(1, 0, 0, 1, -488.8, -47.3)" filter="url(#Union_L-6)">
        <path id="Union_L-14" data-name="Union L" d="M28.917,82.607C78.086,25.831,53.149,0,28.917,0Zm0,0V0C4.138,0-21.362,25.831,28.917,82.607Z" transform="translate(546 129.9) rotate(180)" fill="#ecf0f3"/>
      </g>
      <path id="Path_58-6" data-name="Path 58" d="M1409.083,2753.343l.472,20.612,6-6.278-6,7.832v19.942l12.848-6.087,1.9-10.843-1.412,11.318-13.338,6.927.339,20.293L1431.2,2802.2l-21.307,16.37.316,28.829h-1.558l.008-39-17.881-17.8,17.881,16.074-.1-26.792-7.228-7.02,7.228,5.659Z" transform="translate(-1380.957 -2748.877)" fill="#193566"/>
      <ellipse id="Ellipse_18-6" data-name="Ellipse 18" cx="17.724" cy="3.731" rx="17.724" ry="3.731" transform="translate(10.859 95.563)" fill="#193566" opacity="0.3"/>
    </g>
    <g id="Group_36" data-name="Group 36" transform="translate(433.356)">
      <g transform="matrix(1, 0, 0, 1, -453.36, -20)" filter="url(#Union_S-7)">
        <path id="Union_S-15" data-name="Union S" d="M18.073,52.122C48.8,16.3,33.217,0,18.073,0Zm0,0V0C2.586,0-13.351,16.3,18.073,52.122Z" transform="translate(489.1 72.12) rotate(180)" fill="#ecf0f3"/>
      </g>
      <g transform="matrix(1, 0, 0, 1, -453.36, -20)" filter="url(#Union_L-7)">
        <path id="Union_L-15" data-name="Union L" d="M18.073,52.122C48.8,16.3,33.217,0,18.073,0Zm0,0V0C2.586,0-13.351,16.3,18.073,52.122Z" transform="translate(489.1 72.12) rotate(180)" fill="#ecf0f3"/>
      </g>
      <path id="Path_58-7" data-name="Path 58" d="M1402.219,2753.343l.3,12.882,3.75-3.923-3.75,4.895v12.463l8.03-3.8,1.189-6.777-.883,7.073-8.336,4.329.212,12.683,13.316-9.284-13.316,10.231.2,18.018h-.974l.005-24.376-11.175-11.125,11.175,10.046-.06-16.745-4.517-4.387,4.517,3.537Z" transform="translate(-1384.64 -2750.057)" fill="#193566"/>
      <ellipse id="Ellipse_18-7" data-name="Ellipse 18" cx="10.727" cy="2.332" rx="10.727" ry="2.332" transform="translate(7.128 60.218)" fill="#193566" opacity="0.3"/>
    </g>
    <g id="Group_37" data-name="Group 37" transform="translate(398.139 58.91)">
      <g transform="matrix(1, 0, 0, 1, -418.14, -78.91)" filter="url(#Union_S-8)">
        <path id="Union_S-16" data-name="Union S" d="M23.144,0c39.353,45.876,19.395,66.748,0,66.748Zm0,0V66.748C3.312,66.748-17.1,45.876,23.144,0Z" transform="translate(418.14 78.91)" fill="#ecf0f3"/>
      </g>
      <g transform="matrix(1, 0, 0, 1, -418.14, -78.91)" filter="url(#Union_L-8)">
        <path id="Union_L-16" data-name="Union L" d="M23.144,0c39.353,45.876,19.395,66.748,0,66.748Zm0,0V66.748C3.312,66.748-17.1,45.876,23.144,0Z" transform="translate(418.14 78.91)" fill="#ecf0f3"/>
      </g>
      <path id="Path_58-8" data-name="Path 58" d="M1408.481,2753.343l-.378,16.5-4.8-5.024,4.8,6.268v15.961l-10.283-4.872-1.522-8.678,1.13,9.059,10.675,5.544-.272,16.242-17.053-11.89,17.053,13.1-.253,23.074h1.247l-.007-31.217,14.312-14.247-14.312,12.865.077-21.444,5.785-5.618-5.785,4.529Z" transform="translate(-1385.214 -2749.136)" fill="#193566"/>
      <ellipse id="Ellipse_18-8" data-name="Ellipse 18" cx="13.738" cy="2.986" rx="13.738" ry="2.986" transform="translate(9.173 77.117)" fill="#193566" opacity="0.3"/>
    </g>
  </g>
</svg>
